<?xml version="1.0" standalone="no"?>
<!DOCTYPE svg PUBLIC "-//W3C//DTD SVG 20010904//EN"
 "http://www.w3.org/TR/2001/REC-SVG-20010904/DTD/svg10.dtd">
<svg version="1.0" xmlns="http://www.w3.org/2000/svg"
 width="512.000000pt" height="512.000000pt" viewBox="0 0 512.000000 512.000000"
 preserveAspectRatio="xMidYMid meet">
<metadata>
Created by potrace 1.11, written by Peter Selinger 2001-2013
</metadata>
<g transform="translate(0.000000,512.000000) scale(0.100000,-0.100000)"
fill="#000000" stroke="none">
<path d="M2530 4878 c-11 -18 -20 -35 -21 -38 -6 -37 -53 -177 -102 -300 -57
-146 -236 -496 -342 -670 -48 -80 -93 -154 -99 -165 -6 -11 -93 -141 -192
-290 -99 -148 -193 -292 -210 -318 -16 -27 -36 -59 -44 -72 -8 -13 -37 -61
-65 -107 -27 -45 -55 -92 -62 -103 -22 -38 -180 -360 -193 -395 -7 -19 -19
-48 -26 -65 -32 -77 -85 -273 -100 -370 -4 -27 -9 -59 -11 -70 -10 -60 -8
-292 4 -380 72 -532 382 -968 837 -1180 89 -42 226 -89 288 -100 17 -3 34 -8
38 -10 3 -2 29 -7 56 -10 27 -4 63 -9 79 -12 46 -9 325 -10 370 -2 22 4 60 9
85 12 112 14 306 75 423 133 85 43 196 114 262 167 63 51 192 181 230 232 17
22 32 42 35 45 14 13 92 144 127 215 62 124 123 301 137 399 4 21 8 41 10 45
9 14 20 158 21 256 0 287 -66 542 -228 875 -52 107 -89 175 -218 398 -11 18
-28 45 -38 60 -10 15 -89 135 -176 267 -87 132 -162 242 -166 243 -5 2 -9 8
-9 12 0 5 -29 53 -64 107 -156 242 -326 558 -425 793 -30 69 -57 134 -62 145
-12 29 -60 176 -65 198 -5 27 -37 80 -51 84 -7 3 -22 -10 -33 -29z"/>
</g>
</svg>
